<mxfile host="app.diagrams.net" modified="2022-11-11T07:36:24.144Z" agent="5.0 (Windows NT 10.0; Win64; x64) AppleWebKit/537.36 (KHTML, like Gecko) Chrome/107.0.0.0 Safari/537.36 Edg/107.0.1418.35" etag="kPc80o76lddW1Z6MJ1QI" version="20.4.0" type="github">
  <diagram id="YodmTxko8MeMF1SjW40L" name="第 1 页">
    <mxGraphModel dx="1422" dy="794" grid="1" gridSize="10" guides="1" tooltips="1" connect="1" arrows="1" fold="1" page="1" pageScale="1" pageWidth="1654" pageHeight="2336" math="0" shadow="0">
      <root>
        <mxCell id="0" />
        <mxCell id="1" parent="0" />
        <mxCell id="RXx5Peij8KMHwUZGRes9-1" value="" style="rounded=0;whiteSpace=wrap;html=1;fontSize=15;" parent="1" vertex="1">
          <mxGeometry x="130" y="240" width="1440" height="1050" as="geometry" />
        </mxCell>
        <mxCell id="RXx5Peij8KMHwUZGRes9-2" value="" style="endArrow=none;html=1;rounded=0;entryX=0.25;entryY=0;entryDx=0;entryDy=0;exitX=0.25;exitY=1;exitDx=0;exitDy=0;fontSize=15;" parent="1" source="RXx5Peij8KMHwUZGRes9-1" target="RXx5Peij8KMHwUZGRes9-1" edge="1">
          <mxGeometry width="50" height="50" relative="1" as="geometry">
            <mxPoint x="770" y="630" as="sourcePoint" />
            <mxPoint x="820" y="580" as="targetPoint" />
          </mxGeometry>
        </mxCell>
        <mxCell id="RXx5Peij8KMHwUZGRes9-3" value="" style="endArrow=none;html=1;rounded=0;entryX=0.75;entryY=0;entryDx=0;entryDy=0;exitX=0.75;exitY=1;exitDx=0;exitDy=0;fontSize=15;" parent="1" source="RXx5Peij8KMHwUZGRes9-1" target="RXx5Peij8KMHwUZGRes9-1" edge="1">
          <mxGeometry width="50" height="50" relative="1" as="geometry">
            <mxPoint x="770" y="470" as="sourcePoint" />
            <mxPoint x="820" y="420" as="targetPoint" />
          </mxGeometry>
        </mxCell>
        <mxCell id="RXx5Peij8KMHwUZGRes9-4" value="用户" style="text;html=1;resizable=0;autosize=1;align=center;verticalAlign=middle;points=[];fillColor=none;strokeColor=none;rounded=0;fontSize=15;" parent="1" vertex="1">
          <mxGeometry x="260" y="260" width="50" height="30" as="geometry" />
        </mxCell>
        <mxCell id="RXx5Peij8KMHwUZGRes9-5" value="前端（音渊前台）" style="text;html=1;resizable=0;autosize=1;align=center;verticalAlign=middle;points=[];fillColor=none;strokeColor=none;rounded=0;fontSize=15;" parent="1" vertex="1">
          <mxGeometry x="732" y="260" width="140" height="30" as="geometry" />
        </mxCell>
        <mxCell id="RXx5Peij8KMHwUZGRes9-6" value="服务端" style="text;html=1;resizable=0;autosize=1;align=center;verticalAlign=middle;points=[];fillColor=none;strokeColor=none;rounded=0;fontSize=15;" parent="1" vertex="1">
          <mxGeometry x="1345" y="260" width="70" height="30" as="geometry" />
        </mxCell>
        <mxCell id="RXx5Peij8KMHwUZGRes9-12" style="edgeStyle=orthogonalEdgeStyle;rounded=0;orthogonalLoop=1;jettySize=auto;html=1;exitX=1;exitY=0.5;exitDx=0;exitDy=0;entryX=0;entryY=0.5;entryDx=0;entryDy=0;fontSize=15;" parent="1" source="RXx5Peij8KMHwUZGRes9-8" target="RXx5Peij8KMHwUZGRes9-11" edge="1">
          <mxGeometry relative="1" as="geometry" />
        </mxCell>
        <mxCell id="RXx5Peij8KMHwUZGRes9-29" style="edgeStyle=orthogonalEdgeStyle;rounded=0;orthogonalLoop=1;jettySize=auto;html=1;exitX=0.5;exitY=1;exitDx=0;exitDy=0;entryX=0.5;entryY=0;entryDx=0;entryDy=0;fontSize=15;" parent="1" source="RXx5Peij8KMHwUZGRes9-8" target="RXx5Peij8KMHwUZGRes9-10" edge="1">
          <mxGeometry relative="1" as="geometry" />
        </mxCell>
        <mxCell id="RXx5Peij8KMHwUZGRes9-8" value="未注册用户" style="rounded=0;whiteSpace=wrap;html=1;fontSize=15;" parent="1" vertex="1">
          <mxGeometry x="225" y="320" width="120" height="60" as="geometry" />
        </mxCell>
        <mxCell id="RXx5Peij8KMHwUZGRes9-39" style="edgeStyle=orthogonalEdgeStyle;rounded=0;orthogonalLoop=1;jettySize=auto;html=1;exitX=0.5;exitY=0;exitDx=0;exitDy=0;entryX=0.5;entryY=1;entryDx=0;entryDy=0;fontSize=15;" parent="1" source="RXx5Peij8KMHwUZGRes9-9" target="RXx5Peij8KMHwUZGRes9-33" edge="1">
          <mxGeometry relative="1" as="geometry" />
        </mxCell>
        <mxCell id="RXx5Peij8KMHwUZGRes9-9" value="已注册用户" style="rounded=0;whiteSpace=wrap;html=1;fontSize=15;" parent="1" vertex="1">
          <mxGeometry x="225" y="1120" width="120" height="60" as="geometry" />
        </mxCell>
        <mxCell id="RXx5Peij8KMHwUZGRes9-28" style="edgeStyle=orthogonalEdgeStyle;rounded=0;orthogonalLoop=1;jettySize=auto;html=1;exitX=0.5;exitY=1;exitDx=0;exitDy=0;entryX=0;entryY=0.25;entryDx=0;entryDy=0;fontSize=15;" parent="1" source="RXx5Peij8KMHwUZGRes9-10" target="RXx5Peij8KMHwUZGRes9-27" edge="1">
          <mxGeometry relative="1" as="geometry" />
        </mxCell>
        <mxCell id="RXx5Peij8KMHwUZGRes9-10" value="注册" style="rounded=0;whiteSpace=wrap;html=1;fontSize=15;" parent="1" vertex="1">
          <mxGeometry x="225" y="470" width="120" height="60" as="geometry" />
        </mxCell>
        <mxCell id="RXx5Peij8KMHwUZGRes9-15" style="edgeStyle=orthogonalEdgeStyle;rounded=0;orthogonalLoop=1;jettySize=auto;html=1;exitX=1;exitY=0.5;exitDx=0;exitDy=0;entryX=0;entryY=0.5;entryDx=0;entryDy=0;fontSize=15;" parent="1" source="RXx5Peij8KMHwUZGRes9-11" target="RXx5Peij8KMHwUZGRes9-13" edge="1">
          <mxGeometry relative="1" as="geometry" />
        </mxCell>
        <mxCell id="RXx5Peij8KMHwUZGRes9-11" value="访问站点" style="rounded=0;whiteSpace=wrap;html=1;fontSize=15;" parent="1" vertex="1">
          <mxGeometry x="420" y="320" width="120" height="60" as="geometry" />
        </mxCell>
        <mxCell id="RXx5Peij8KMHwUZGRes9-16" style="edgeStyle=orthogonalEdgeStyle;rounded=0;orthogonalLoop=1;jettySize=auto;html=1;exitX=1;exitY=0.5;exitDx=0;exitDy=0;entryX=0;entryY=0.5;entryDx=0;entryDy=0;fontSize=15;" parent="1" source="RXx5Peij8KMHwUZGRes9-13" target="RXx5Peij8KMHwUZGRes9-14" edge="1">
          <mxGeometry relative="1" as="geometry" />
        </mxCell>
        <mxCell id="RXx5Peij8KMHwUZGRes9-13" value="发送请求" style="rounded=0;whiteSpace=wrap;html=1;fontSize=15;" parent="1" vertex="1">
          <mxGeometry x="742" y="320" width="120" height="60" as="geometry" />
        </mxCell>
        <mxCell id="RXx5Peij8KMHwUZGRes9-21" style="edgeStyle=orthogonalEdgeStyle;rounded=0;orthogonalLoop=1;jettySize=auto;html=1;exitX=1;exitY=0.5;exitDx=0;exitDy=0;entryX=0.25;entryY=0;entryDx=0;entryDy=0;fontSize=15;" parent="1" source="RXx5Peij8KMHwUZGRes9-14" target="RXx5Peij8KMHwUZGRes9-18" edge="1">
          <mxGeometry relative="1" as="geometry" />
        </mxCell>
        <mxCell id="RXx5Peij8KMHwUZGRes9-14" value="获取站点资源" style="rounded=0;whiteSpace=wrap;html=1;fontSize=15;" parent="1" vertex="1">
          <mxGeometry x="1350" y="370" width="120" height="60" as="geometry" />
        </mxCell>
        <mxCell id="RXx5Peij8KMHwUZGRes9-24" style="edgeStyle=orthogonalEdgeStyle;rounded=0;orthogonalLoop=1;jettySize=auto;html=1;exitX=0;exitY=0.25;exitDx=0;exitDy=0;entryX=1;entryY=0.5;entryDx=0;entryDy=0;fontSize=15;" parent="1" source="RXx5Peij8KMHwUZGRes9-18" target="RXx5Peij8KMHwUZGRes9-23" edge="1">
          <mxGeometry relative="1" as="geometry">
            <Array as="points">
              <mxPoint x="1850" y="535" />
              <mxPoint x="1850" y="510" />
            </Array>
          </mxGeometry>
        </mxCell>
        <mxCell id="RXx5Peij8KMHwUZGRes9-18" value="MYSQL 数据库" style="rounded=0;whiteSpace=wrap;html=1;fontSize=15;" parent="1" vertex="1">
          <mxGeometry x="2020" y="420" width="180" height="460" as="geometry" />
        </mxCell>
        <mxCell id="PfplGbF6E_adJJfHb1EB-2" style="edgeStyle=orthogonalEdgeStyle;rounded=0;orthogonalLoop=1;jettySize=auto;html=1;exitX=0;exitY=0.5;exitDx=0;exitDy=0;fontFamily=Helvetica;fontSize=15;startArrow=none;startFill=0;" edge="1" parent="1" source="RXx5Peij8KMHwUZGRes9-23" target="PfplGbF6E_adJJfHb1EB-1">
          <mxGeometry relative="1" as="geometry" />
        </mxCell>
        <mxCell id="RXx5Peij8KMHwUZGRes9-23" value="返回站点资源" style="rounded=0;whiteSpace=wrap;html=1;fontSize=15;" parent="1" vertex="1">
          <mxGeometry x="1350" y="480" width="120" height="60" as="geometry" />
        </mxCell>
        <mxCell id="RXx5Peij8KMHwUZGRes9-55" style="edgeStyle=orthogonalEdgeStyle;rounded=0;orthogonalLoop=1;jettySize=auto;html=1;exitX=0.75;exitY=1;exitDx=0;exitDy=0;entryX=0;entryY=0.5;entryDx=0;entryDy=0;startArrow=none;startFill=0;fontSize=15;" parent="1" source="RXx5Peij8KMHwUZGRes9-25" target="RXx5Peij8KMHwUZGRes9-53" edge="1">
          <mxGeometry relative="1" as="geometry" />
        </mxCell>
        <mxCell id="RXx5Peij8KMHwUZGRes9-25" value="站点首页" style="rounded=0;whiteSpace=wrap;html=1;fontSize=15;" parent="1" vertex="1">
          <mxGeometry x="742" y="480" width="120" height="60" as="geometry" />
        </mxCell>
        <mxCell id="RXx5Peij8KMHwUZGRes9-32" style="edgeStyle=orthogonalEdgeStyle;rounded=0;orthogonalLoop=1;jettySize=auto;html=1;exitX=0;exitY=0.75;exitDx=0;exitDy=0;entryX=0.5;entryY=0;entryDx=0;entryDy=0;fontSize=15;" parent="1" source="RXx5Peij8KMHwUZGRes9-27" target="RXx5Peij8KMHwUZGRes9-30" edge="1">
          <mxGeometry relative="1" as="geometry" />
        </mxCell>
        <mxCell id="RXx5Peij8KMHwUZGRes9-27" value="注册界面" style="rounded=0;whiteSpace=wrap;html=1;fontSize=15;" parent="1" vertex="1">
          <mxGeometry x="570" y="570" width="120" height="60" as="geometry" />
        </mxCell>
        <mxCell id="RXx5Peij8KMHwUZGRes9-65" style="edgeStyle=orthogonalEdgeStyle;rounded=0;orthogonalLoop=1;jettySize=auto;html=1;exitX=0.5;exitY=1;exitDx=0;exitDy=0;entryX=0;entryY=0.5;entryDx=0;entryDy=0;entryPerimeter=0;fontSize=15;startArrow=none;startFill=0;" parent="1" source="RXx5Peij8KMHwUZGRes9-30" target="RXx5Peij8KMHwUZGRes9-31" edge="1">
          <mxGeometry relative="1" as="geometry" />
        </mxCell>
        <mxCell id="RXx5Peij8KMHwUZGRes9-30" value="个人信息填写提交" style="rounded=0;whiteSpace=wrap;html=1;fontSize=15;" parent="1" vertex="1">
          <mxGeometry x="225" y="670" width="120" height="60" as="geometry" />
        </mxCell>
        <mxCell id="RXx5Peij8KMHwUZGRes9-36" value="N" style="edgeStyle=orthogonalEdgeStyle;rounded=0;orthogonalLoop=1;jettySize=auto;html=1;exitX=0.5;exitY=0;exitDx=0;exitDy=0;exitPerimeter=0;entryX=0.5;entryY=1;entryDx=0;entryDy=0;fontSize=15;" parent="1" source="RXx5Peij8KMHwUZGRes9-31" target="RXx5Peij8KMHwUZGRes9-27" edge="1">
          <mxGeometry relative="1" as="geometry" />
        </mxCell>
        <mxCell id="RXx5Peij8KMHwUZGRes9-37" value="Y" style="edgeStyle=orthogonalEdgeStyle;rounded=0;orthogonalLoop=1;jettySize=auto;html=1;exitX=0.5;exitY=1;exitDx=0;exitDy=0;exitPerimeter=0;entryX=0.5;entryY=0;entryDx=0;entryDy=0;fontSize=15;" parent="1" source="RXx5Peij8KMHwUZGRes9-31" target="RXx5Peij8KMHwUZGRes9-34" edge="1">
          <mxGeometry relative="1" as="geometry" />
        </mxCell>
        <mxCell id="PfplGbF6E_adJJfHb1EB-4" value="Y" style="edgeStyle=orthogonalEdgeStyle;rounded=0;orthogonalLoop=1;jettySize=auto;html=1;exitX=1;exitY=0.5;exitDx=0;exitDy=0;exitPerimeter=0;entryX=-0.008;entryY=0.633;entryDx=0;entryDy=0;entryPerimeter=0;fontFamily=Helvetica;fontSize=15;startArrow=none;startFill=0;" edge="1" parent="1" source="RXx5Peij8KMHwUZGRes9-31" target="PfplGbF6E_adJJfHb1EB-3">
          <mxGeometry relative="1" as="geometry">
            <Array as="points">
              <mxPoint x="840" y="770" />
              <mxPoint x="840" y="918" />
            </Array>
          </mxGeometry>
        </mxCell>
        <mxCell id="RXx5Peij8KMHwUZGRes9-31" value="是否注册成功" style="strokeWidth=2;html=1;shape=mxgraph.flowchart.decision;whiteSpace=wrap;fontSize=15;" parent="1" vertex="1">
          <mxGeometry x="560" y="730" width="140" height="80" as="geometry" />
        </mxCell>
        <mxCell id="RXx5Peij8KMHwUZGRes9-38" style="edgeStyle=orthogonalEdgeStyle;rounded=0;orthogonalLoop=1;jettySize=auto;html=1;exitX=1;exitY=0.5;exitDx=0;exitDy=0;entryX=0;entryY=0.5;entryDx=0;entryDy=0;fontSize=15;" parent="1" source="RXx5Peij8KMHwUZGRes9-33" target="RXx5Peij8KMHwUZGRes9-34" edge="1">
          <mxGeometry relative="1" as="geometry" />
        </mxCell>
        <mxCell id="RXx5Peij8KMHwUZGRes9-33" value="登录" style="rounded=0;whiteSpace=wrap;html=1;fontSize=15;" parent="1" vertex="1">
          <mxGeometry x="225" y="900" width="120" height="60" as="geometry" />
        </mxCell>
        <mxCell id="RXx5Peij8KMHwUZGRes9-42" style="edgeStyle=orthogonalEdgeStyle;rounded=0;orthogonalLoop=1;jettySize=auto;html=1;exitX=0.5;exitY=1;exitDx=0;exitDy=0;fontSize=15;" parent="1" source="RXx5Peij8KMHwUZGRes9-34" target="RXx5Peij8KMHwUZGRes9-40" edge="1">
          <mxGeometry relative="1" as="geometry" />
        </mxCell>
        <mxCell id="RXx5Peij8KMHwUZGRes9-34" value="登录界面" style="rounded=0;whiteSpace=wrap;html=1;fontSize=15;" parent="1" vertex="1">
          <mxGeometry x="570" y="900" width="120" height="60" as="geometry" />
        </mxCell>
        <mxCell id="RXx5Peij8KMHwUZGRes9-45" value="Y" style="edgeStyle=orthogonalEdgeStyle;rounded=0;orthogonalLoop=1;jettySize=auto;html=1;exitX=1;exitY=0.5;exitDx=0;exitDy=0;exitPerimeter=0;entryX=0.5;entryY=1;entryDx=0;entryDy=0;fontSize=15;" parent="1" source="RXx5Peij8KMHwUZGRes9-40" target="RXx5Peij8KMHwUZGRes9-25" edge="1">
          <mxGeometry relative="1" as="geometry">
            <mxPoint x="869.9999999999995" y="960" as="targetPoint" />
          </mxGeometry>
        </mxCell>
        <mxCell id="RXx5Peij8KMHwUZGRes9-46" value="N" style="edgeStyle=orthogonalEdgeStyle;rounded=0;orthogonalLoop=1;jettySize=auto;html=1;exitX=0;exitY=0.5;exitDx=0;exitDy=0;exitPerimeter=0;entryX=1;entryY=0.5;entryDx=0;entryDy=0;fontSize=15;" parent="1" source="RXx5Peij8KMHwUZGRes9-40" target="RXx5Peij8KMHwUZGRes9-43" edge="1">
          <mxGeometry relative="1" as="geometry" />
        </mxCell>
        <mxCell id="RXx5Peij8KMHwUZGRes9-50" style="edgeStyle=orthogonalEdgeStyle;rounded=0;orthogonalLoop=1;jettySize=auto;html=1;exitX=0.5;exitY=1;exitDx=0;exitDy=0;exitPerimeter=0;entryX=0;entryY=0.5;entryDx=0;entryDy=0;startArrow=open;startFill=0;fontSize=15;" parent="1" source="RXx5Peij8KMHwUZGRes9-40" target="RXx5Peij8KMHwUZGRes9-47" edge="1">
          <mxGeometry relative="1" as="geometry" />
        </mxCell>
        <mxCell id="RXx5Peij8KMHwUZGRes9-40" value="是否登录成功" style="strokeWidth=2;html=1;shape=mxgraph.flowchart.decision;whiteSpace=wrap;fontSize=15;" parent="1" vertex="1">
          <mxGeometry x="560" y="1060" width="140" height="80" as="geometry" />
        </mxCell>
        <mxCell id="RXx5Peij8KMHwUZGRes9-43" value="重新登录" style="rounded=0;whiteSpace=wrap;html=1;fontSize=15;" parent="1" vertex="1">
          <mxGeometry x="225" y="1210" width="120" height="60" as="geometry" />
        </mxCell>
        <mxCell id="RXx5Peij8KMHwUZGRes9-52" style="edgeStyle=orthogonalEdgeStyle;rounded=0;orthogonalLoop=1;jettySize=auto;html=1;exitX=1;exitY=0.5;exitDx=0;exitDy=0;entryX=0.25;entryY=1;entryDx=0;entryDy=0;startArrow=classic;startFill=1;fontSize=15;" parent="1" source="RXx5Peij8KMHwUZGRes9-47" target="RXx5Peij8KMHwUZGRes9-18" edge="1">
          <mxGeometry relative="1" as="geometry" />
        </mxCell>
        <mxCell id="RXx5Peij8KMHwUZGRes9-47" value="信息核对" style="rounded=0;whiteSpace=wrap;html=1;fontSize=15;" parent="1" vertex="1">
          <mxGeometry x="1345" y="1130" width="120" height="60" as="geometry" />
        </mxCell>
        <mxCell id="RXx5Peij8KMHwUZGRes9-66" style="edgeStyle=orthogonalEdgeStyle;rounded=0;orthogonalLoop=1;jettySize=auto;html=1;exitX=1;exitY=0.5;exitDx=0;exitDy=0;entryX=-0.006;entryY=0.914;entryDx=0;entryDy=0;entryPerimeter=0;fontSize=15;startArrow=none;startFill=0;" parent="1" source="RXx5Peij8KMHwUZGRes9-48" target="RXx5Peij8KMHwUZGRes9-18" edge="1">
          <mxGeometry relative="1" as="geometry">
            <Array as="points">
              <mxPoint x="1840" y="810" />
              <mxPoint x="1840" y="840" />
            </Array>
          </mxGeometry>
        </mxCell>
        <mxCell id="RXx5Peij8KMHwUZGRes9-48" value="信息写入" style="rounded=0;whiteSpace=wrap;html=1;fontSize=15;" parent="1" vertex="1">
          <mxGeometry x="1320" y="780" width="120" height="60" as="geometry" />
        </mxCell>
        <mxCell id="RXx5Peij8KMHwUZGRes9-58" style="edgeStyle=orthogonalEdgeStyle;rounded=0;orthogonalLoop=1;jettySize=auto;html=1;exitX=0.5;exitY=1;exitDx=0;exitDy=0;entryX=0.5;entryY=0;entryDx=0;entryDy=0;entryPerimeter=0;startArrow=none;startFill=0;fontSize=15;" parent="1" source="RXx5Peij8KMHwUZGRes9-53" target="RXx5Peij8KMHwUZGRes9-57" edge="1">
          <mxGeometry relative="1" as="geometry" />
        </mxCell>
        <mxCell id="RXx5Peij8KMHwUZGRes9-53" value="留言、收藏、&lt;br&gt;评论、点赞" style="rounded=0;whiteSpace=wrap;html=1;fontSize=15;" parent="1" vertex="1">
          <mxGeometry x="930" y="570" width="140" height="80" as="geometry" />
        </mxCell>
        <mxCell id="RXx5Peij8KMHwUZGRes9-59" value="Y" style="edgeStyle=orthogonalEdgeStyle;rounded=0;orthogonalLoop=1;jettySize=auto;html=1;exitX=1;exitY=0.5;exitDx=0;exitDy=0;exitPerimeter=0;entryX=0.5;entryY=0;entryDx=0;entryDy=0;startArrow=none;startFill=0;fontSize=15;" parent="1" source="RXx5Peij8KMHwUZGRes9-57" target="RXx5Peij8KMHwUZGRes9-48" edge="1">
          <mxGeometry relative="1" as="geometry" />
        </mxCell>
        <mxCell id="RXx5Peij8KMHwUZGRes9-60" value="N" style="edgeStyle=orthogonalEdgeStyle;rounded=0;orthogonalLoop=1;jettySize=auto;html=1;exitX=0.5;exitY=1;exitDx=0;exitDy=0;exitPerimeter=0;entryX=1;entryY=0.5;entryDx=0;entryDy=0;startArrow=none;startFill=0;fontSize=15;" parent="1" source="RXx5Peij8KMHwUZGRes9-57" target="RXx5Peij8KMHwUZGRes9-34" edge="1">
          <mxGeometry relative="1" as="geometry" />
        </mxCell>
        <mxCell id="RXx5Peij8KMHwUZGRes9-57" value="是否登录" style="strokeWidth=2;html=1;shape=mxgraph.flowchart.decision;whiteSpace=wrap;fontSize=15;" parent="1" vertex="1">
          <mxGeometry x="930" y="700" width="140" height="80" as="geometry" />
        </mxCell>
        <mxCell id="RXx5Peij8KMHwUZGRes9-68" value="音渊前台用户访问业务流程图" style="text;html=1;resizable=0;autosize=1;align=center;verticalAlign=middle;points=[];fillColor=none;strokeColor=none;rounded=0;fontSize=50;fontFamily=Helvetica;" parent="1" vertex="1">
          <mxGeometry x="815" y="85" width="670" height="70" as="geometry" />
        </mxCell>
        <mxCell id="PfplGbF6E_adJJfHb1EB-1" value="刷新页面" style="rounded=0;whiteSpace=wrap;html=1;fontFamily=Helvetica;fontSize=15;" vertex="1" parent="1">
          <mxGeometry x="1020" y="480" width="120" height="60" as="geometry" />
        </mxCell>
        <mxCell id="PfplGbF6E_adJJfHb1EB-5" style="edgeStyle=orthogonalEdgeStyle;rounded=0;orthogonalLoop=1;jettySize=auto;html=1;exitX=1;exitY=0.5;exitDx=0;exitDy=0;entryX=0.5;entryY=1;entryDx=0;entryDy=0;fontFamily=Helvetica;fontSize=15;startArrow=none;startFill=0;" edge="1" parent="1" source="PfplGbF6E_adJJfHb1EB-3" target="RXx5Peij8KMHwUZGRes9-48">
          <mxGeometry relative="1" as="geometry" />
        </mxCell>
        <mxCell id="PfplGbF6E_adJJfHb1EB-3" value="密码盐值加密" style="rounded=0;whiteSpace=wrap;html=1;fontFamily=Helvetica;fontSize=15;" vertex="1" parent="1">
          <mxGeometry x="1230" y="880" width="120" height="60" as="geometry" />
        </mxCell>
      </root>
    </mxGraphModel>
  </diagram>
</mxfile>
